<?xml version="1.0" encoding="utf-8"?>
<!-- Generator: Adobe Illustrator 25.0.0, SVG Export Plug-In . SVG Version: 6.00 Build 0)  -->
<svg version="1.1" id="Layer_1" xmlns="http://www.w3.org/2000/svg" xmlns:xlink="http://www.w3.org/1999/xlink" x="0px" y="0px"
	 viewBox="0 0 2000 2000" style="enable-background:new 0 0 2000 2000;" xml:space="preserve">
<style type="text/css">
	.st0{fill:#FFFFFF;}
</style>
<g>
	<path class="st0" d="M333.9,990.8c262.3,24.6,513.1,228,588,507c35.4,131.9,39,255.3,42.8,366.8c0.5,13.6,11.7,24.5,25.3,24.6
		c11,0.1,22.1,0.1,33.1,0.1c14.8-0.1,26.1-13,25-27.8c-9.3-124.5-3.6-242.8,28.9-363.8c75-279,325.7-482.4,588-507
		c11.8-1.2,81.1-5.7,152.4-4.5c75.8,1.2,158.6,16.9,171.5,18.3c-37.5-17.4-76.7-31.9-117.9-42.9c-368-98.8-745.6,103.6-871.7,456.2
		c-126.1-352.6-503.7-555-871.7-456.2c-41.2,11-80.6,25.7-117.9,42.9c13-1.4,95.9-17,171.5-18.3C252.8,985,322.2,989.6,333.9,990.8z
		"/>
	<path class="st0" d="M1421.3,278c-182.1,83.1-363.8,182.4-390.2,396c-4.5,36.3,0,73.3,0,126.3c141.4-285.2,422.1-381.1,422.1-381.1
		c-91.7,38-422.1,381.1-422.1,381.1c124.4-45.7,239.8-87.9,355.3-130.4c244-111.6,340.8-313.9,357.7-567.9
		C1634,162.8,1531,227.9,1421.3,278z"/>
	<path class="st0" d="M658.9,399.4c139.7,63.8,279.1,140.1,299.5,303.9c3.5,27.9,0,56.2,0,97c-108.6-219-323.9-292.5-323.9-292.5
		C705,537,958.4,800.3,958.4,800.3c-95.5-35-184.1-67.5-272.7-100c-187.3-85.6-261.5-241-274.6-435.8
		C495.6,311.1,574.6,361,658.9,399.4z"/>
	<path class="st0" d="M1076,920.6c57.3,57.7,57.3,164.9,0.5,227.8c-44.4,49-110.3,45.9-156.7,0c-59.9-62.1-59.1-169.4,0.4-227.6
		C964.2,877.6,1029.7,877,1076,920.6z"/>
</g>
</svg>
