<?xml version="1.0" encoding="utf-8"?>
<!-- Generator: Adobe Illustrator 25.0.0, SVG Export Plug-In . SVG Version: 6.00 Build 0)  -->
<svg version="1.1" id="Layer_1" xmlns="http://www.w3.org/2000/svg" xmlns:xlink="http://www.w3.org/1999/xlink" x="0px" y="0px"
	 viewBox="0 0 2000 2000" style="enable-background:new 0 0 2000 2000;" xml:space="preserve">
<style type="text/css">
	.st0{fill:#FFFFFF;}
</style>
<g id="Endocrinology__x26__Diabetes">
	<g>
		<path class="st0" d="M619.9,676.4c0,29.6-6.5,58.3-19.2,85.6c-9.8,21-22.6,40.1-37.7,57.4c-1.6,1.8-3.1,3.4-4.5,5.1
			c-10.9,13.1-6.3,31.7,9.4,38c8.7,3.5,17.5,7.3,25.7,12c24.5,13.8,45.4,31.8,61.2,55.2c13.9,20.7,22.5,43.6,25.5,68.2
			c2.9,23.6,0.3,46.8-6.9,69.4c-9,28.9-23,54.6-44.2,76.5c-13.1,13.5-27.9,24.8-44.3,33.9c-2.1,1.3-4.4,2.2-6.5,3.7
			c-10,6.9-13.2,19.7-7.8,30.5c5.3,10.7,17.8,15.7,29.4,11.9c2.9-1,5.7-2.3,8.8-3.7c19.8-8.5,40.7-12,62.1-10
			c53.4,4.7,91.6,38.9,106.6,83.1c9,26.6,9.5,53.4,1.8,80.4c-0.7,2.3-1.5,4.8-1.9,7.2c-2.3,9.7,1.6,19.8,9.7,25.5
			c8.1,5.4,19.2,5.4,27.3,0c1.9-1.5,3.8-3.1,5.7-4.7c22.7-17.5,48.3-26.7,77.3-25.2c17.9,0.9,34.5,6,50.3,14.2
			c14.7,7.6,27.9,17.3,39.5,29.4c10.1,10.7,25.1,10.7,35.5,0.3c0.9-0.9,1.6-1.8,2.3-2.3c16.3-16.3,35.5-28.6,57.5-35.7
			c39.6-12.6,75.4-5,108.2,20.1c1.2,0.9,2.1,1.8,3.1,2.5c8.7,7.5,21.3,6.9,29.1,1.8c8.8-5.9,12.5-16.4,9.5-27.3
			c-1.9-7.2-4.1-14.4-5.3-21.7c-7.9-47.3,10.9-97.3,50.8-125.5c16.3-11.6,34.3-18.5,54.2-21.1c25.2-3.5,49.5,0.3,72.5,10.7
			c4.1,1.8,8.4,3.4,12.9,3.5c9.1,0.3,19.8-5.3,23.2-17.2c2.9-10.3-0.6-20.4-9.5-26.7c-1.9-1.5-4.3-2.5-6.5-3.7
			c-24.4-13.6-45.1-31.4-61.2-54.3c-18.5-26.3-30.2-55.3-34-87.2c-5.6-47.8,8.4-90,40.7-125.8c18.9-20.8,42-36.1,68.1-46.5
			c1.5-0.6,2.9-1,4.4-1.8c14.5-6.6,18.9-24.4,9-36.8c-1.3-1.6-2.6-3.1-4.1-4.5c-22.9-26.1-40.2-55.2-50.2-88.8
			c-7.6-25.7-9.2-51.7-6.6-78.4c2.9-29.2,10.7-57.1,23.3-83.5c11.4-23.5,26.3-44.6,46.4-61.6c21.3-18.3,45.9-29.4,73.8-32.4
			c23.9-2.5,47.3,0.4,69.7,9.1c49.6,19.2,85.6,52.7,105.8,102c9,21.7,12.3,44.6,12,68.1c-0.3,17.9-2.8,35.5-7.8,52.7
			c-2.2,8.1-1.6,15.7,3.5,22.6c2.6,3.5,6,5.9,10,7.8c8.7,4.3,17.2,9,25.1,14.5c28.2,19.5,49.2,44.8,61.1,77.2
			c8.5,23.3,11.6,47.6,9.5,72.4c-2.9,37.4-15.7,71.6-35.8,103c-1.5,2.1-2.8,4.1-3.8,6.3c-6.6,15.9,3.4,31.4,17.9,33.5
			c2.6,0.4,5.3,0.6,8.1,0.7c14.1,0.7,27.7,3.5,40.8,8.5c46.8,17.9,78.7,50.2,92.9,98.3c11.3,37.9,6.2,74.7-13.1,109
			c-22,38.9-55,63.6-98.6,74c-1.3,0.3-2.6,0.6-4,1c-9.7,2.8-16.4,10.7-17.3,20.3c-1,10.4,3.7,19.2,12.6,24.1
			c1.5,0.7,2.8,1.3,4.3,2.1c36.4,18.5,67.4,43.3,92,75.9c18.6,24.7,31,52.2,36.7,82.5c4.1,22.2,4.7,44.3,2.2,66.6
			c-2.3,22.7-7.8,44.8-16.6,65.9c-8.5,19.8-19.5,38-34.6,53.6c-22.5,22.9-49.6,36.3-81.6,39.6c-25.4,2.6-49.9-1.5-73.8-9.1
			c-4.7-1.6-9.2-3.5-14.1-5c-9.7-2.9-19.8,0.6-25.8,8.7c-5.3,7-6.2,14.8-3.1,23c0.7,2.1,1.8,4.1,2.8,6.2
			c9.8,21.3,14.7,43.7,12.3,67.1c-5.3,51.1-32.4,86.4-80.6,104.6c-29.6,11.2-59.6,10.9-89.2-0.9c-20.1-8.1-36.4-21.4-49.6-38.5
			c-6.9-8.8-12.6-18.6-17.3-28.9c-0.9-1.8-1.6-3.8-2.5-5.4c-6.2-11.3-19.7-15.7-31.4-10.1c-2.2,1.2-4.3,2.3-6.5,3.7
			c-26,15.6-53.7,25.7-83.7,28.9c-45.1,4.8-85.3-7.5-120.1-36.5c-28.3-23.5-47.1-53.6-58.6-88.4c-8.1-24.2-11.3-49.2-10.6-74.6
			c0-1.9,0.1-4.1,0-6c-0.9-14.2-13.5-24.2-27.6-22.3c-6.6,1-13.4,2.1-20.1,2.1c-41.8,0-74.7-17.3-99.1-51.1c-1-1.5-1.9-3.1-3.1-4.5
			c-9.8-12.8-28.6-12.8-38.5,0c-1.2,1.5-1.9,2.9-3.1,4.5c-19.1,26.7-44.5,43.7-76.9,49.6c-13.8,2.5-27.7,2.3-41.7,0
			c-9.1-1.8-16.9,1.3-22.9,8.4c-4,4.7-5.6,10.1-5.4,16.3c0,7.6,0.4,15.4,0,22.9c-2.8,46.7-18.2,88.5-49,124
			c-21.7,25-48.1,42.6-80.1,51.4c-21.1,5.9-42.6,6.9-64.3,4c-29.1-4-55.8-14.1-80.7-29.4c-4.3-2.6-8.7-5-13.8-5
			c-10.3-0.3-17.8,4.1-22.7,13.1c-1,1.8-1.8,3.7-2.5,5.4c-6.6,14.5-15.3,27.6-26.3,39c-20.7,21.6-45.8,33.8-75.6,36.1
			c-35.2,2.5-66.3-7.5-93.2-30.1c-21-17.9-33.8-40.7-39.2-67.8c-5.4-27.6-1.8-54.2,9.7-79.8c0.6-1.3,1.2-2.5,1.8-3.7
			c6.5-12,2.5-23-3.1-28.9c-8.4-8.4-17.8-9.4-28.6-5.3c-7.8,2.9-15.7,5.4-23.8,7.6c-14.7,4-29.6,6-44.8,5.9
			c-43.3-0.4-78.7-17.5-105.8-50.9c-11.4-14.1-20.1-29.8-26.9-46.7c-12.9-32.6-18.2-66.3-16.1-101.3c2.5-45.9,19.2-86.3,48.9-121.2
			c23.2-27.3,51.1-48.6,83.1-64.7c1.8-1,3.7-1.8,5.4-2.6c8.5-5.3,12.6-12.9,11.9-22.7c-1-10.3-6.6-17.5-16.6-20.8
			c-2.9-1-6-1.6-9.1-2.3c-54.9-14.1-98-58.1-109.8-113.6c-9.2-44.3,0.9-84.7,29.4-119.9c25.4-31.4,58.6-49.2,98.6-54.6
			c3.8-0.6,7.6-0.4,11.4-0.9c3.1-0.4,6.3-0.7,9.2-1.8c13.5-4.8,19.5-20.4,13.1-33.3c-1.2-2.2-2.5-4.3-4-6.3
			c-15.4-23.9-26.3-49.8-32-77.6c-5.6-28.8-5.4-57.4,2.6-85.6c10.7-37.4,33-66.8,65-88.6c7.5-5.1,15.6-9.1,23.2-13.6
			c1.8-1,3.7-1.8,5.3-2.8c8.5-5.4,12.5-15.4,10.3-25.2c-1.6-7.2-3.7-14.4-5.1-21.7c-6.3-34.2-4.5-67.8,7.9-100.4
			c13.6-35.7,37.3-63.4,68.8-84.5c19.2-12.8,39.9-21.9,62.5-26.1c51.1-9.4,95,4.5,130.9,42.1c18.5,19.2,31.6,42.1,41.2,66.9
			c11.2,28.5,16.9,57.8,17.3,89.1h0.3L619.9,676.4z"/>
		<path class="st0" d="M906.8,1328.9c-0.3-1.5-0.4-2.3-0.6-3.5c-0.7-15.9-0.1-226.9,0.6-232.6c1.2,0,2.3-0.6,3.7-0.7H1102
			c0.3,1.8,0.7,2.9,0.9,4.3v223.4c0,2.8,0.6,5.7-0.9,9.1c-36.5,4.1-68.4,18.9-97.3,41.8c-9.7-7.3-19.4-14.2-29.8-20
			s-21.4-10.6-32.7-14.4C930.9,1332.6,919,1330.4,906.8,1328.9L906.8,1328.9L906.8,1328.9L906.8,1328.9z"/>
		<path class="st0" d="M1102.5,202.9H911.3c-1.3,0-2.6-0.1-4.1-0.3c-1.2-2.6-0.9-5.1-0.9-7.5v-79.7c0.3-40.5,26.6-79,66.9-92.5
			c55.2-18.3,110.4,13.4,125.8,66.6c2.6,9.1,4,18.5,4,28v77.8C1102.9,197.6,1102.8,199.8,1102.5,202.9L1102.5,202.9L1102.5,202.9z"
			/>
		<path class="st0" d="M907.1,538.7c-0.3-0.9-0.7-1.5-0.7-1.9V422.6c0-0.9,0.3-1.8,0.6-2.5c2.5-1.3,5-0.7,7.5-0.7H1095
			c2.3,0,5-0.4,7.3,0.6c0.3,0.9,0.7,1.5,0.7,2.1V537c0,0.6-0.4,1.3-0.7,2.2c-1.3,0-2.5,0.4-3.8,0.4H915.4c-2.6,0-5.3,0.4-7.9-0.7
			L907.1,538.7L907.1,538.7L907.1,538.7z"/>
		<path class="st0" d="M907.1,924.1c0.9,0,1.8-0.6,2.5-0.6h192.1c0.4,1.6,0.7,2.8,1,4.1v110.1c0,1.6-0.1,3.1-0.3,5.1
			c-1.3,0.3-2.5,0.9-3.8,0.9c-1.8,0-3.7,0-5.3,0H915.7c-59.3,0-5.3,0-8.4,0c-0.4-1.6-0.9-2.8-0.9-4.1c-0.1-1.6,0-3.1,0-4.8V932
			C906.6,929.6,906.1,926.9,907.1,924.1L907.1,924.1L907.1,924.1L907.1,924.1z"/>
		<path class="st0" d="M906.6,588.2c5.4-0.9,183.2-1.5,192.7-0.7c1.2,0,2.1,0.6,3.1,0.9c0.9,6.9,0.7,113-0.1,118.7
			c-1.2,0-2.3,0.4-3.7,0.6H915.4c-2.6,0-5.3,0-8.5,0c-0.3-2.1-0.6-3.8-0.6-5.4V596.1c0-2.3,0-5,0.1-7.6l0,0L906.6,588.2L906.6,588.2
			z"/>
		<path class="st0" d="M1102.3,756.4c0.1,0.9,0.6,1.8,0.6,2.5v115.8c-1.6,0.4-2.8,0.9-4.1,1c-1.8,0-3.7,0-5.3,0H915.9
			c-2.8,0-5.9,0.6-8.7-0.7c-1-4.8-1.5-60.6-0.9-112.7c0-1.9,0.3-4,0.4-6c1.3,0,2.1-0.4,2.9-0.4h190.5
			C1100.7,755.9,1101.5,756.2,1102.3,756.4L1102.3,756.4L1102.3,756.4z"/>
		<path class="st0" d="M906.8,371c-0.3-1.8-0.4-2.8-0.4-4c-0.6-14.7-0.1-109.5,0.6-115.2c1.2-0.3,2.3-0.6,3.7-0.7h190.9
			c1.9,2.6,1.3,5.3,1.3,7.6V344c0,28.5,0,13.9,0,21c0,7-0.3,3.5-0.4,5.3c-1.2,0.3-1.9,0.7-2.8,0.7L906.8,371L906.8,371z"/>
	</g>
</g>
</svg>
