<?xml version="1.0" encoding="utf-8"?>
<!-- Generator: Adobe Illustrator 25.0.0, SVG Export Plug-In . SVG Version: 6.00 Build 0)  -->
<svg version="1.1" id="Layer_1" xmlns="http://www.w3.org/2000/svg" xmlns:xlink="http://www.w3.org/1999/xlink" x="0px" y="0px"
	 viewBox="0 0 2000 2000" style="enable-background:new 0 0 2000 2000;" xml:space="preserve">
<style type="text/css">
	.st0{fill:#FFFFFF;}
</style>
<g id="Gastroenterology__x26__Endoscopy">
	<g>
		<path class="st0" d="M1986.6,1067.7c-1.1,158.5-35,297.4-104.7,427c-32,59.4-72.4,112.9-119.6,161.2
			c-97.5,99.7-214.2,168.7-345.2,214.5c-58.8,20.5-119,35.1-180.5,44.2c-41.4,6.1-83,9.7-124.9,10.6c-44.1,1.1-88.1-0.8-131.8-6
			c-111.8-13.5-217.5-45.6-312.9-107.3c-12.7-8.2-24.9-17.3-37-26.3c-3.9-2.9-7.5-3.5-12.2-3.3c-26.3,1.5-52.6,3.9-78.9,3.5
			c-59.9-0.7-114.1-20.1-163.6-53.3c-1.9-1.2-3.7-2.4-5.6-3.5c-12.5-7.5-22.7-6.9-34.3,1.8c-12.8,9.5-20.8,22.7-27.2,37
			c-12.9,29.2-16.9,60.1-15.6,91.8c1,23.7-15.6,44.9-38.4,48.4c-24.2,3.8-47.2-10.3-52.1-33.9c-2.6-12.2-2-25.3-1.6-38
			c1.1-32.1,6.9-63.3,18.4-93.3c11.7-30.6,28.2-57.9,53.2-79.7c26-22.4,55.9-33.7,90.5-31.3c22.7,1.6,43.1,10.2,62,22.7
			c21.8,14.4,44.9,26.1,70.3,32.8c27.9,7.2,56.2,7.6,84.6,5.7c18.9-1.2,37.7-3.9,56.6-5.6c12.1-1.1,23,2.6,32.4,10.5
			c77.8,65.4,168.7,101.7,267.3,120.9c39.7,7.8,79.7,12.1,120.1,13.5c148.7,5,290.4-24.2,424.8-88.1
			c70.7-33.6,135.1-76.9,192.5-130.3c75-70.1,130.6-153,167.2-248.8c21.1-55.2,36.6-112,45.3-170.4c5-33.2,7.8-66.5,8.4-100.1
			c2.4-125.3-23.3-244.4-78.8-356.8c-32-64.6-72.9-123-124.5-173.6c-61.8-60.5-133-105.2-217.2-127.5
			c-39.9-10.6-80.4-15.4-121.5-13.7c-55,2.3-108.3,12.5-158.3,36c-63,29.7-108.8,76.7-139.3,139c-9.7,19.7-24.8,29.4-46.8,28.6
			c-74.5-2.7-141.7-25.4-199.7-73c-47.5-38.9-80.5-88.1-102-145.4c-9-23.9,3.4-50.1,26.8-58.9c24.1-9.1,50.3,2.6,59.9,27.1
			c12.9,33.2,30.7,63.3,55.5,89c32.5,33.6,72,54.4,117.5,63.9c4.6,1,9.5,1.2,14.1,2.4c3.9,1.1,5.6-0.7,7.3-3.7
			c16.2-27.7,35.5-53.1,58.1-75.8c50.1-50.6,110.3-83.7,178.7-102.3c41.4-11.2,83.5-17.8,126.4-19.2c84.3-2.7,164.3,14.7,240.2,50.9
			c95.4,45.4,172.1,113,234.9,197.1c64.1,85.7,107.6,181.2,134,284.6c11.7,45.6,19.9,91.8,23.4,138.7
			C1984.8,1027.7,1985.7,1053.2,1986.6,1067.7z"/>
		<path class="st0" d="M1369,1296.7c-5,12.1-9.7,23.3-14.3,34.4c-2.6,6.5-5.7,12.8-7.6,19.6c-3.4,12.2,3.1,24.5,14.8,29.1
			c12.2,4.8,26.1,0.1,31.4-11.7c7.9-17.3,15-34.8,22-52.5c2.9-7.2,1.2-14.4-2.9-22.4c6.9,0,13.2,0,19.3,0c20.3,0,40.5,0.1,60.7,0
			c3.8,0,5.6,1.2,6.7,4.9c3,9.8,6.4,19.6,9.7,29.4c3.8,11.2,14.4,18.6,25.3,17.8c12.2-1,21.9-9.4,23.7-21.8
			c0.5-4.2-0.5-8.7-1.5-12.9c-1.1-4.8-2.9-9.4-4.8-15.1c64.2,4.5,127.2,9.8,189.8,24.6c-0.8,2.4-1.2,4.2-1.8,5.8
			c-30.9,82.3-76.9,155.1-138.1,218.1c-89.9,92.5-198.2,153.7-322.7,187c-31.7,8.4-63.8,14.4-96.3,18.5
			c-36.9,4.6-73.9,6.1-110.9,4.4c-147-7.1-278.3-55.8-392.4-149.6c-1.8-1.4-3.4-2.9-5-4.2c-0.3-0.3-0.3-0.7-0.5-1.1
			c0.3-0.3,0.7-0.8,1.1-1c29.1-10.6,58.1-21.1,87.2-31.7c28.3-10.3,57.4-16.7,87.6-18.5c29-1.6,57.7,1.4,86.4,4.4
			c22.7,2.4,45.6,3.3,68.2-1c29.2-5.4,49.4-23.4,64.5-47.9c9.5-15.5,19-31.2,29.1-46.4c19.3-29.5,45.4-52.1,73.9-72.4
			c20.1-14.4,39.2-30.1,56.3-48c12.5-12.9,29.2-18.9,46.1-24.1c26.1-7.9,53.1-12.1,80.1-14.6c2.3-0.3,4.8-0.8,7.1-1
			C1363.4,1296.6,1365.6,1296.7,1369,1296.7z"/>
		<path class="st0" d="M409.3,1379c82-0.1,152.8,17.5,220.9,46.2c4.1,1.6,7.1,1.5,10.7-0.5c41.9-22.2,84.6-42.4,130.3-55.6
			c35.9-10.3,72.5-16.3,109.9-17.7c12-0.4,23.9-0.7,35.9-0.7c3.3,0,5-1,6.5-3.7c16.9-28.8,37-55.2,61.6-77.8
			c16.9-15.6,35.4-29.5,53.3-43.9c3-2.4,4.1-4.4,3.4-8.2c-9.8-52.9-10.3-105.8-1-158.9c0.7-3.8-0.1-6.5-2.9-9.4
			c-43.7-46.1-73.5-100.3-91.8-160.6c-1.2-3.8-3-5.6-6.8-6.9c-47.6-15.9-95.6-31-142.8-48.3c-53.2-19.5-102.7-46.4-146.8-82.6
			c-47.9-39.4-85.3-87.6-115.5-141.3c-20.5-36.5-37.5-74.7-52.1-113.9c-11-29.9,7.5-59.4,39.2-63.1c19.6-2.2,38.8,10.3,46.9,29.9
			c10.9,26,21.5,52.1,34,77.3c31.4,62.6,74,116.2,131.9,156.6c40.8,28.6,85.8,48.6,132.8,64.6c42.4,14.6,85.3,28.2,128,42
			c18.4,6,29.1,18.2,33.5,36.9c11.6,49.5,32.6,94.5,65.6,133.7c8.6,10.1,18,19.5,27.6,28.6c13.3,12.7,18,27.9,14.6,45.7
			c-5.3,26.9-9.5,54-10.1,81.6c-0.7,33.2,4.9,65.7,11.3,98.1c1.6,8.2,3,16.9,2,25c-1.8,15.6-10.7,26.8-24.6,34.6
			c-49.9,27.6-89.1,66.2-116.8,116.3c-2.7,4.8-4.8,9.9-7.3,14.8c-8.8,17.4-22.9,26.7-42.4,26.7c-20.1,0-40.1-1.2-60.3-0.8
			c-57.9,1.4-112.2,17.4-163.9,42.7c-21.2,10.3-42,21.2-62.8,32.4c-15,7.9-29.7,8.8-45,1.6c-42.7-20-86.9-35.2-133.6-43.3
			c-65.2-11-129-7.9-190.3,18.8c-68.6,29.8-116.2,80.7-146.2,148.4c-16.9,38.1-26.1,78.1-29.9,119.4c-3,32.6-1.6,65.2,0.5,97.7
			c1.6,23.7-15.5,43.3-37.8,46.8c-28.7,4.6-52.4-14.7-54.1-43.7c-1.2-21.1-3-42.3-2.9-63.5c0.8-74.3,14.4-145.8,48.3-212.5
			c55-107.9,141.6-175.2,260.1-200.9C359,1381.3,387.8,1378.6,409.3,1379z"/>
		<path class="st0" d="M1431.2,1141.8c0.7-10.9,1.8-21.4,2-31.8c0.3-17.1,0.7-34.3,0-51.4c-2.3-52.9-14.8-102.7-47.7-145.7
			c-25-32.8-57-57.4-92.4-77.9c-53.9-31.4-112-52.4-172.1-68.2c-49.8-13.1-99.8-25.4-149.2-40.1c-68.2-20.4-132.8-49.9-194.7-84.9
			c-48.2-27.2-85.4-66.2-116.8-111.1c-40.3-57.5-68.6-121.1-91.4-187.2c-22.2-64.2-38-129.9-49.5-196.7c-3.5-20.4-6.1-41.1-9-61.6
			c-1.4-9.9,6.4-20.1,15.9-21.2c12.2-1.5,21.4,5.4,22.9,17c13.3,102,36.7,201.5,74.7,297.4c16.7,42.3,37,82.7,62,120.8
			c35.8,54.5,82,96.4,140.8,126c78.8,39.7,160.8,69.4,246.5,89.9c44.9,10.7,89.8,21.8,133.3,37.5c55.2,20,107.6,45.4,154.5,81.3
			c56.9,43.5,92.9,99.8,105.6,170.7c5.8,32.6,6.5,65.6,5.6,98.5c-0.4,16.6-1.8,33.1-3,49.5c-0.3,3.8,1.8,4.8,4.5,5.8
			c12,4.8,19.7,13.2,23.3,25.6c2.2,7.5,1.8,15-0.8,22.2c-4.6,13.1-9.2,26-14.3,38.9c-7.9,20-28,29.2-48.3,22.2
			c-13.2-4.6-26.4-9.4-39.3-14.6c-18.2-7.2-27.9-27.1-21.8-45.7c4.8-14.6,9.8-29,15.9-43c6.1-13.9,17.7-21.4,33.2-21.8
			C1424.4,1141.7,1427.2,1141.8,1431.2,1141.8z"/>
		<path class="st0" d="M1283.3,1248.6c-10.6-0.5-20.1-7.8-22.4-17.7c-2.7-11.2,1.9-21.8,12.4-26.9c16.2-8,32.6-15.5,49.1-23
			c2.7-1.2,6.1-1.6,9.1-1.6c10.7-0.1,19.6,6.7,22.4,16.9c2.9,10.3-1.4,21.6-11,26.4c-16.9,8.4-33.9,16.2-51,23.9
			C1289.1,1247.9,1286.2,1248,1283.3,1248.6z"/>
		<path class="st0" d="M1549.4,1293.9c-6.8-0.5-11.8-1-16.9-1.2c-9.5-0.4-19-0.7-28.6-1.2c-1.8-0.1-4.8-0.8-5.2-1.9
			c-3.1-8.7-8-17.3-4.4-27.1c3.3-8.8,9.5-14.4,18.9-15.5c10.3-1.2,19.2,2.3,23.5,11.8C1541.6,1269.5,1544.7,1281.1,1549.4,1293.9z"
			/>
	</g>
</g>
</svg>
