<?xml version="1.0" encoding="utf-8"?>
<!-- Generator: Adobe Illustrator 25.0.0, SVG Export Plug-In . SVG Version: 6.00 Build 0)  -->
<svg version="1.1" id="Layer_1" xmlns="http://www.w3.org/2000/svg" xmlns:xlink="http://www.w3.org/1999/xlink" x="0px" y="0px"
	 viewBox="0 0 2000 2000" style="enable-background:new 0 0 2000 2000;" xml:space="preserve">
<style type="text/css">
	.st0{fill:#FFFFFF;}
</style>
<g>
	<path class="st0" d="M261.2,1033.6l83.9,167.9c45.2,90.6,129.4,151.5,226.8,168.1v31.8c0,309.9,252.1,562,562,562
		s562-252.1,562-562V888.2c151.6-25.6,267.6-157.4,267.6-316.2c0-177.1-144-321.1-321.1-321.1s-321.1,144-321.1,321.1
		c0,158.8,116,290.7,267.6,316.2v513.2c0,250.9-204.2,454.9-454.9,454.9c-250.9,0-454.9-204-454.9-454.9v-31.8
		c97.2-16.7,181.4-77.6,226.8-168.1l83.9-167.9c142.6-112.8,224.5-279.8,224.5-461.6V304.3c0-80.3-44.9-149.6-110.5-186.1
		c-11.5-46.6-53.5-81.4-103.6-81.4c-59,0-107.1,48.1-107.1,107.1s48.1,107.1,107.1,107.1c26.9,0,51.2-10.3,70-26.8
		c22.5,19.6,37,48.2,37,80.3v267.6c0,150.9-68.6,290-188.7,382.3c-1.6,0.9-3.1,2-4.6,3.1c-83.5,63-183.2,96.3-288.4,96.3
		s-204.8-33.3-288.4-96.3c-1.5-1.1-3-2-4.6-3c-120.1-92.6-188.9-231.6-188.9-382.7V304.3c0-46.7,30.2-86,71.9-100.6
		c19.2,28.4,51.9,47.1,88.7,47.1c59,0,107.1-48.1,107.1-107.1S363.3,36.6,304.2,36.6c-41.2,0-76.5,23.6-94.4,57.7
		c-98.6,19.1-173.2,105.9-173.2,210v267.6C36.6,753.6,118.6,920.8,261.2,1033.6z M1642.2,625.4c-29.5,0-53.5-24-53.5-53.5
		c0-29.5,24-53.5,53.5-53.5s53.5,24,53.5,53.5C1695.7,601.4,1671.7,625.4,1642.2,625.4z M1428.2,571.8c0-118.1,96-214,214-214
		c118.1,0,214,96,214,214c0,99.5-68.5,182.5-160.6,206.5v-55.8c62.1-22.2,107.1-81,107.1-150.7c0-88.5-72-160.6-160.6-160.6
		s-160.6,72-160.6,160.6c0,69.7,44.8,128.5,107.1,150.7v55.8C1496.5,754.4,1428.2,671.3,1428.2,571.8z M809.9,1153.5
		c-35.2,70.3-105.9,114-184.5,114s-149.3-43.7-184.5-114l-13.5-27.1c2.2,0.8,4.3,1.2,6.5,2c9.9,3.4,19.9,6.4,30.1,9.2
		c5,1.5,10,3,15.2,4.3c14.6,3.8,29.5,6.9,44.4,9.5c0.4,0.1,0.9,0.3,1.4,0.3c32.9,5.7,66.5,8.8,100.6,8.8c34.1,0,67.7-3.1,100.6-8.7
		c0.7-0.1,1.4-0.3,2-0.4c14.8-2.6,29.4-5.7,43.7-9.3c5.3-1.4,10.4-3,15.7-4.5c9.9-2.8,19.6-5.7,29.4-9.1c2.2-0.8,4.5-1.2,6.8-2
		L809.9,1153.5z"/>
</g>
</svg>
