<?xml version="1.0" encoding="utf-8"?>
<!-- Generator: Adobe Illustrator 25.0.0, SVG Export Plug-In . SVG Version: 6.00 Build 0)  -->
<svg version="1.1" id="Layer_1" xmlns="http://www.w3.org/2000/svg" xmlns:xlink="http://www.w3.org/1999/xlink" x="0px" y="0px"
	 viewBox="0 0 2000 2000" style="enable-background:new 0 0 2000 2000;" xml:space="preserve">
<style type="text/css">
	.st0{fill:#FFFFFF;}
	.st1{fill-rule:evenodd;clip-rule:evenodd;fill:#FFFFFF;}
</style>
<g id="Internal_Medicine__x26__Cardiology">
	<g>
		<path class="st0" d="M742.5,1060.6c-16.3,4.7-33.2-4.7-38.1-21c-4.7-16.3,4.7-33.2,21-38.1c15.3-4.5,32-7.5,49.6-9.3
			c18.3-1.9,37.9-2.5,57.8-2.3c4.1,0.1,7.9-1.6,10.8-4.2c2.8-2.6,4.7-6.3,4.9-10.4c4.7-89.4-4.8-162.8-26.4-223.4
			c1.7-34.3,8.1-68.3,20.5-100c50,81.4,74.7,187.1,67.3,326.5c-1.1,20.7-10.2,39.1-24.3,52.3c-14.1,13.1-33,21-53.7,20.6
			c-17.1-0.2-34.3,0.4-50.6,2C767.1,1055,753.9,1057.3,742.5,1060.6L742.5,1060.6z M493.8,490.3c-42.6-12.4-88-23-135.9-32.3
			c-16.6-3.3-27.6-19.3-24.5-36c3.1-16.6,19.3-27.6,36-24.5c53.1,10.4,103.7,22.2,151.2,36.5C510.7,452.3,501.8,471,493.8,490.3
			L493.8,490.3z M1723.7,578.7c16.3,5.1,25.3,22.3,20.2,38.5c-5.1,16.3-22.3,25.3-38.5,20.2c-112.6-35.1-220.3-51.4-327.4-42.9
			c-106.7,8.6-213.3,41.9-324.2,106.4c-14.7,8.6-33.5,3.5-42-11.2c-0.6-1-1.1-2-1.6-3l0,0c-21.7-49.1-50.6-94.1-85.8-134.4
			c27.6-14.6,57.9-17.1,82.4,5.1c16.9,23.5,31.9,48.2,45.2,74.1c109-58.8,214.9-89.9,321.1-98.3
			C1488.5,524,1603.7,541.5,1723.7,578.7L1723.7,578.7z M581.1,345.8c-44.1-12.5-90.2-22-137.7-28.3c-16.9-2.2-28.7-17.6-26.5-34.4
			c2.2-16.9,17.6-28.7,34.4-26.5c62.2,8.2,122,21.6,178.6,39.7C612.5,311.7,596.2,328.2,581.1,345.8L581.1,345.8z M1708.8,728.7
			c16.3,5.1,25.3,22.3,20.2,38.5c-5.1,16.3-22.3,25.3-38.5,20.2c-112.1-34.9-214.9-46-311.7-32.9c-91.2,12.4-177.9,46.4-263.1,102.6
			c2.2,26.7,2.9,54.2,1.9,82.4c-1.2,34.8-4.9,70.2-11.2,106.2c-1.6,8.7,2.6,13.9,10,17.3c19.8,9.6,39.1,19.9,58.4,31.2
			c19.9,11.7,46.3,30.2,65.8,43.7c33.2,22.9-0.4,71.5-33.6,48.7c-6-4.1-20.2-12.4-26.1-16.3c12.3,47.6,10.6,97.4,2.6,145.5
			c-5.2,31.7-13.4,64-23.6,96.4c-2.8,36,4.9,67.7,12.6,99.5c11.2,46.1,22.4,92.5,9.4,154.7c-3.5,16.6-19.8,27.2-36.4,23.8
			c-16.6-3.5-27.2-19.8-23.8-36.4c9.8-46.5,1.4-84.6-7.6-122.3c-26.4,60.2-55.9,117.6-81.4,167.3l-8.2,15.9
			c-7.7,15.1-26.1,21.1-41.3,13.4c-15.1-7.7-21.1-26.1-13.4-41.3l8.2-15.9c37.9-73.8,85-165.6,116.2-256c-3.5,2.8-7,5.7-10.6,8.4
			c-63.6,48.8-146.8,90.7-210.3,110.9c-16.1,5.1-33.4-3.9-38.5-20c-5.1-16.1,3.9-33.4,20-38.5c57.5-18.3,133.1-56.6,191.5-101.3
			c29.4-22.5,53.7-46,67.8-68.2c20.1-31.7,16.6-74.6,9.5-109.7c-6.3-31.2-19.4-59-41.2-82.1c-27.8-16.3-42.4-47.7-36.9-79.5
			c5.9-34,9.4-66.6,10.5-97.9s-0.1-62-3.5-92.1l0,0c-1.2-10.8,3.5-22,13.1-28.7c98-67.8,198.3-108.6,304.6-123.1
			C1476.6,679.2,1588,691.1,1708.8,728.7L1708.8,728.7z"/>
		<path class="st1" d="M540.4,911.9C475.6,671.1,563.3,350.6,822,278.5c36.5-62,46.3-153.9,33.5-269.3h180.6
			c17,76.8,17,176.9-22.4,252.1c63.2-65.8,115.5-139.2,153.1-222.9l201.1,42.3c-36,101.4-95.6,192.2-170.6,277.8
			c29.6,28.7,61.9,70,86.2,112.6l-202.1,77C970.3,340.5,682.3,539.8,756.8,880C781.2,991.7,560.6,986.7,540.4,911.9L540.4,911.9z"/>
		<path class="st0" d="M378.7,997.2c15.2-20.5,44-24.7,64.4-9.5c20.5,15.2,24.7,44,9.5,64.4c-48.4,65-59.6,142-44.7,216.9
			c17.3,87.3,69.6,171.9,140,233.2c106.1,92.5,356.5,391.3,467.5,385.4c16-0.8,33.5-5.5,51.7-13.5c172.5-75,314.1-334.1,304.5-518.2
			c-2.2-41-10.6-80.7-26.9-117.9c-6.4-14.6-1.1-2.9-2.8-6.5c-21.4-48.3-24.7-55.5,18.4-104.8c8.7-10,16.9-20.8,24.3-32.4
			c27.9-43.2,43.4-94.6,36.7-147.8c-4.6-36.9-19.9-75.2-49.1-113.3c5.5-1,11.1-1.8,16.6-2.5c29.5-4,59.1-5.3,88.6-4.3
			c19.6,36.3,31,73,35.5,109c9.5,76.2-11.9,148.5-50.8,208.7c-9.6,15.1-20.7,29.5-32.6,43.2c-4.5,5.1-4.3,5.3-3.6,7
			c3.5,7.8-1.1-2.9,3.1,6.9c20.8,47.8,31.7,98.4,34.4,150.1c11.7,222.5-151.5,516.7-359.7,607.3c-28.2,12.3-56.5,19.6-83.8,21
			c-170,8.9-394.5-287.5-532.7-408.2c-85.2-74.3-148.5-177.4-170-284.9c-10.2-51.3-11-103.6-0.1-154.4
			c-10.7-14.9-19.6-30.4-27.1-46.3c-35.5-75.8-33.4-157.3-6.7-232.6c25.7-72.5,74.2-139.4,132.9-188.9c11.6-9.8,23.6-18.9,36.1-27.3
			c-7,42.6-10,86-9.3,129c-31.8,34.3-57.6,75-72.8,117.9c-15.8,44.6-20,91.5-7.2,135.6C368,1012.1,373.1,1004.6,378.7,997.2
			L378.7,997.2z"/>
	</g>
</g>
</svg>
