<?xml version="1.0" encoding="utf-8"?>
<!-- Generator: Adobe Illustrator 25.0.0, SVG Export Plug-In . SVG Version: 6.00 Build 0)  -->
<svg version="1.1" id="Layer_1" xmlns="http://www.w3.org/2000/svg" xmlns:xlink="http://www.w3.org/1999/xlink" x="0px" y="0px"
	 viewBox="0 0 2000 2000" style="enable-background:new 0 0 2000 2000;" xml:space="preserve">
<style type="text/css">
	.st0{fill:#FFFFFF;}
	.st1{fill-rule:evenodd;clip-rule:evenodd;fill:#FFFFFF;}
</style>
<g id="Orthopedics">
	<g>
		<path class="st0" d="M380.5,600.3c64.3,43.7,134.6,87.5,205.7,129C664,774.6,742.7,816.9,816,853.1
			c70.4,34.8,110.5,79.2,132.2,133.9c20.6,51.7,23,109.6,19.2,176c-14.6,260.9,44.8,476.2,106.9,700.4l3.1,11.3h-94.4
			c-62.7-226.9-121.6-446.3-106.5-716.7c3-54.9,1.6-101.1-12.8-137.6c-13.4-33.7-39.8-61.9-87.9-85.6
			c-75.2-36.9-156-80.2-235.3-126.4C464.7,764.2,390,717.4,322.2,671l-7.3-5L380.5,600.3L380.5,600.3z M895.7,88.8
			c-0.6-0.6-1.3-1.1-1.9-1.8l64.4-64.4c100.1,89.7,194.3,182.5,281.3,279.3c87.9,97.7,169.4,200.4,243.4,309.1
			c3.3,4.8,12.3,17.5,21.3,30.4c55,77.9,114.3,161.7,120.5,314.8c6.5,158.5,15.9,308.6,28.5,467.9c11.3,143.3,24.7,288.8,40.7,450.8
			h-91.5c-16.1-163.9-29.4-308.4-40.2-443.6c-12.3-156.7-21.7-307.6-28.5-471.5c-5.1-125.8-56.5-198.4-104.1-265.8
			c-5.7-8-11.2-15.9-22.1-31.8c-70.8-104.1-149.8-203.5-235.8-299.2C1085.3,267,993,175.9,895.7,88.8L895.7,88.8z"/>
		<path class="st1" d="M1309,796.4c36.5,70.2,42.4,95.6,38.3,161.4c-3.4,55.4,69.4,54,81.7,10.8c17-59.4,20.3-122.9-24-190.1
			C1372.7,729,1285.7,751.4,1309,796.4L1309,796.4z M1266.6,1332.2c2.8,60.4,6,120.2,10.2,179.3l-84.9,84.9
			c-7.8-94.1-13.4-190.2-17.6-287.9c-48.5-7.5-92.2-19-89-77.7c4.6-87.8,338-240.2,385.5-11.1c9,43.9,15.2,112.4,21.6,198.6
			l-147.9,147.9c-12.1-89.7-30.3-165.5-56.4-211.8C1282.9,1344.8,1275.5,1337.7,1266.6,1332.2L1266.6,1332.2z M1282.9,1591.5
			c2,23.5,4,46.8,6.3,69.9c10.3,105.2,23.9,207.3,41.9,304.9h-92.4c-16.7-93.3-29.5-190.7-39.4-291.1L1282.9,1591.5L1282.9,1591.5z
			 M1498.4,1498.5c2.3,31.3,4.6,64.2,7.2,98.6c8.7,114.3,15.1,246.1,18.5,369.3h-160.9c1.9-106-0.8-219.9-10-322.6L1498.4,1498.5
			L1498.4,1498.5z M522.1,203c194.1,154.7,481.8,435.5,537.1,598c28.3,83.1-110.2,158.6-26,234.9
			c168.1,152.6,340.8-74.7,263.3-242.6c-34.4-74.5-138-178.2-254.8-306.5c-119.2-131-280.1-291.4-399.2-404.1L522.1,203L522.1,203z"
			/>
	</g>
</g>
</svg>
