<?xml version="1.0" encoding="utf-8"?>
<!-- Generator: Adobe Illustrator 25.0.0, SVG Export Plug-In . SVG Version: 6.00 Build 0)  -->
<svg version="1.1" id="Layer_1" xmlns="http://www.w3.org/2000/svg" xmlns:xlink="http://www.w3.org/1999/xlink" x="0px" y="0px"
	 viewBox="0 0 2000 2000" style="enable-background:new 0 0 2000 2000;" xml:space="preserve">
<style type="text/css">
	.st0{fill:#FFFFFF;}
</style>
<g>
	<g>
		<g>
			<path class="st0" d="M1686.2,209.1c17.7,38.5,37.8,71.3,48.6,108c45.7,153.8,11.1,296.4-112.5,421.9
				c-128.1,130.3-258.8,258.3-387.2,388.5c-23.8,24.1-46,35.6-79.5,34.4c-94-3.2-177.3,33.2-248.4,102.7
				c-40.9,39.9-80.3,81.6-120.7,122.1c-20.4,20.4-48.3,45.6-48.3,45.6l-135.4-135.5C603,1296.9,1607.8,272.6,1686.2,209.1z"/>
			<path class="st0" d="M296.4,1740.4c59.4,59.4,147.2,67.7,196.2,18.7L847.7,1404l-17.2-17.2l-19.5,19.8
				c-23.5,23.5-74.8,71.7-74.8,71.7l-10.4,9.7l-180.1-180.1l102-103.9l-15-15l-355.1,355C228.6,1593,237.1,1681,296.4,1740.4
				L296.4,1740.4z"/>
		</g>
	</g>
</g>
</svg>
