<?xml version="1.0" encoding="utf-8"?>
<!-- Generator: Adobe Illustrator 25.0.0, SVG Export Plug-In . SVG Version: 6.00 Build 0)  -->
<svg version="1.1" id="Layer_1" xmlns="http://www.w3.org/2000/svg" xmlns:xlink="http://www.w3.org/1999/xlink" x="0px" y="0px"
	 viewBox="0 0 2000 2000" style="enable-background:new 0 0 2000 2000;" xml:space="preserve">
<style type="text/css">
	.st0{fill:#FFFFFF;}
</style>
<g>
	<g>
		<path class="st0" d="M1648.1,1431.6c-68.3,0.1-136.6,0-204.9,0c0,0,0,0,0-0.1c-70.1,0-140.2-0.2-210.3,0.1
			c-20.4,0.1-31.4,12.1-31.2,30.8c0.2,18.6,11.8,30.3,32,30.3c137.8,0.2,275.6,0.1,413.3,0.1c10,0,18.9-2.1,25.5-10.1
			c8.3-10,10.3-21.1,5.3-33.2C1672.4,1436.6,1662,1431.6,1648.1,1431.6z"/>
	</g>
	<g>
		<path class="st0" d="M952.4,1383.7h957.8c49.5,0,89.8-40.2,89.8-89.7V642.1c0-49.5-40.2-89.8-89.8-89.8H952.4
			c-49.5,0-89.8,40.2-89.8,89.8V957l-4.6,0.4c-27.8,2-36.1,9-44.7,37.8c-6,20.1-12,40-18.3,61.3l-14.9,50l-5.9-23.3
			c-0.6-2.3-0.9-3.6-1.2-4.9l-14.8-72.1c-11.6-56.6-23.1-113.3-34.6-169.9c-5.7-28.6-11.5-57.1-17.1-85.7
			c-5.2-26-10.3-52.1-15.6-78.1c-4.3-21.2-19.2-36.2-36.2-36.6c-0.2,0-0.5,0-0.7,0c-18.1,0-32,12.8-37.4,34.2
			c-3.9,15.5-7.3,31.1-10.7,46.7l-21.5,96.8c-18.5,83.5-37.2,166.9-55.8,250.3c-6.5,28.6-12.9,57.2-19.5,85.9l-11.3,49.3l-6.3-9.9
			c-4.6-7-6-14-6.8-19.1c-2.7-17.6-5.4-35.1-8.1-52.7c-3.6-23.5-7.3-46.8-10.9-70.3C446,922.8,426,798.8,405.9,674.7
			c-9-55.8-16.8-102-24.4-145.4c-3.2-18.4-17.6-24.5-29.1-26.4c-15-2.7-27.4,3.4-35.7,17.2c-4.2,7-7.2,15.2-9.9,23.3l-0.7,2
			c-46,130.1-93.4,264.2-139.2,396.4C162,956,153.6,959,142.6,959c-0.4,0-0.7,0-1.1,0c-26.5-0.5-52.8-0.2-79.2-0.2l-18.9,0.1
			c-7.4,0-13.3,0-18.8,2.6c-15.4,7.3-24.5,23.2-21.8,37.9c3.5,19,18.2,30.8,38.5,31.1c45.7,0.6,91.1,0.4,133.6,0.1
			c30.3-0.1,39.5-7,50-36.9c28.1-80.6,56.3-161.1,84.7-241.7c3.3-9.4,6.8-18.6,10.7-28.9l11.4-30.6l4.1,14.5c0.7,2.6,1.4,4.8,2,6.7
			c1.2,3.9,2,6.7,2.5,9.5c9.6,59.7,19.2,119.4,28.6,179.1l24.3,152.6c18.4,116.6,36.9,233,55.5,349.6c1.8,10.8,3.3,20.6,8.4,28.6
			c8.6,13.5,21.6,18.5,38.2,15.2c14.9-2.9,24.3-13.5,28.5-32.3l89.5-395.3c8-35.2,16-70.4,24.4-107.1l12.4-54.4l5.9,14.2
			c1.1,2.5,1.9,4.3,2.6,5.9c1.2,2.7,2.1,4.7,2.6,6.9c25.3,126.1,50.5,252.2,75.6,378.1c4.1,20.8,16.4,33.3,33.8,34.5
			c19.6,1.4,32.4-9,38.6-30.5c11-37.8,21.9-75.5,32.8-113.3l20.5-71.1v209.8C862.6,1343.5,902.8,1383.7,952.4,1383.7z M1977.8,993.2
			h-16c-16.7,0-33.1,0.1-48.9,0c-33.3-0.2-35.1-1.4-47.7-29.7c-3.9-8.6-7.4-17.2-10.9-25.9c-2.9-7.3-5.9-14.4-9-21.6
			c-3.4-7.7-7-15.4-10.7-23.1l-3.8-8l-1.5,0.1l-33.3,118.1l-85.9-67.6L1599,995l-63.9-40.6l-56.6,46.1l-77.2-138.7l-125.1,140.4
			l-62.7-77.3c-5.9,5.2-11.6,10.1-17.4,14.9c-16,13.6-31,26.5-45.2,40c-13.6,12.9-28,17.9-47.6,17.9c-48.1-0.7-97.2-0.6-144.5-0.4
			l-38.1,0.1c-7.2,0-14.2,0.5-21.2,0.8l-10.2,0.6l-0.1-34.1l11,0.6c8.7,0.5,17,0.7,25.6,0.7c14.8,0,29.6-0.1,44.3-0.4
			c35-0.5,71.1-0.8,106.6,1.1c33.7,2,57.4-6.9,78.2-29.1c11.7-12.7,25.5-23.6,39.8-35.2c6.5-5.2,12.9-10.4,19.5-16l3.8-3.2
			l59.8,72.2l126.9-142.9l3.6,4.7c19.6,25.2,33.2,52.1,46.4,78.1c10.8,21.1,20.9,41,33.9,60.3l45.9-38.4l16,10.8
			c10.7,7.2,20.9,14,30.8,20.9c20.5,14.3,20.5,14.3,41.6,2.5c19.8-11,39.5-22.2,60.2-33.9l30.6-17.4l63.6,51.6
			c7.4-18.3,11.7-37.1,16-55.4c6-25.9,11.6-50.4,25.2-73.4l1.3-2.2l13.6-0.8l2.3,3l64.5,140.7h77.8L1977.8,993.2L1977.8,993.2z
			 M884.6,800.3l8.9,2.1c2.1,0.5,3.6,0.9,4.5,0.9l21.9,0.1c36.7,0.2,73.1,0.4,109.9,0.2c0.2,0,0.6,0,0.8,0c8.6,0,17.4,0.5,26.2,0.9
			c21.6,1.2,43.9,2.3,61.6-4c17.1-6.2,31-19.7,45.5-34c6.5-6.3,13-12.8,19.9-18.5c6.2-5.3,12.5-10.4,19.6-16.3l15.1-12.4l57.6,71
			c20.5-20.1,39.1-41.4,56.8-62c21.9-25.5,44.7-51.8,71.7-75.9l4.6-4.1l78.5,142l47.1-36.5l65.4,44.1l114.4-61.3l62.9,52.4l3.5-12.3
			c3-10.8,5.7-20.4,8.4-30c1.5-5.5,2.9-11,4.3-16.5c2.6-10,5.2-19.9,8.2-29.8c1.1-3.3,1.6-6.9,2.2-10.8c2-12,4.2-25.6,21.1-36.8
			l4.3-2.8l2.6,4.5c15.4,26,26.7,53,37.8,79.3c9.1,21.6,18.4,43.9,29.9,65h77.6v30.5h-95.4l-1.4-2.1c-11.4-16.8-18.8-34.5-25.9-51.7
			c-7.3-17.4-14.8-35.2-26.4-52.5l-32.7,113.4l-86.6-65.6l-109.8,60.8l-62.6-41.5l-59,46L1402,698.3c-23.7,22.2-44,45.7-63.7,68.7
			c-18.5,21.6-37.6,43.9-59.3,64.5l-3.8,3.6l-3.4-4c-20.9-24.7-39.2-46.4-58.8-69.7c-5.4,4.7-10.7,9.1-15.8,13.6
			c-14.8,12.7-28.7,24.5-41.9,37.1c-13.4,12.7-28.6,18.4-48,17.8c-38.2-0.8-77.2-0.7-115.1-0.6c-14.5,0-29.2,0-43.9,0h-64v-29.1
			H884.6z M884.6,1134.4h4.9c18.5,0,36.9,0,55.1-0.1c48.9-0.1,95.2-0.4,142.4,0.5c0.7,0,1.3,0,2,0c20.1,0,34.1-5.3,48.1-17.9
			c16.9-15.2,34.7-29.2,53.6-44c8-6.3,16.2-12.7,24.5-19.4l3.8-2.9l58.3,68.4c20.1-19.4,37.8-40,55-60.2
			c22-25.7,44.9-52.3,72.7-76.5l4.6-4l78.6,141.9l47.7-36.1l65.6,42.5l110.8-60.2l66,48.3c0.7-2,1.3-3.9,1.9-5.6
			c2.3-7.2,4.3-13.3,6-19.4c2.7-10.1,5.3-20.2,8-30.4c4.6-17.9,9.3-35.8,14.3-53.5c1.4-5,4.3-9.3,8.3-15.1c2-3,4.3-6.5,7-10.8
			l4.8-7.9l71.1,155.9h78.1v32.3H1881l-50.4-109.1c-7,16.1-10.9,32-14.7,47.6c-5.2,21.2-10.1,41.4-22,60.9l-2.9,4.7l-80.3-63.5
			l-112.5,60.3l-60.2-41.5l-60,45.4l-76.7-138.7l-124.8,139.6l-62.2-73.2c-6.3,5-12.4,9.9-18.5,14.7c-16.7,13.1-32.4,25.5-47.1,38.6
			c-11.4,10.2-23.8,14-42.2,14.3c-51.7-0.5-103.3-0.4-155.1-0.2h-31c-7.4,0-15,0.4-23.5,0.7l-12.2,0.5L884.6,1134.4L884.6,1134.4z
			 M884.6,1197.5l9.6,32c0.2,0.8,0.4,1.6,0.6,2.3c7.5,0.2,15,0.6,22.4,0.9c48.1,2.2,93.6,4.3,134.1-23.5
			c8.6-5.9,18.8-10.1,27.7-13.4c5.2-2,10.7-2.8,15.5-3.6c1.9-0.4,3.6-0.6,5.4-0.9l2.9-0.6l24.5,31.2l42.8-47.3l31.7,44.9
			c9.3-6.3,15.6-15,22.2-24.2c9-12.5,18.4-25.5,36.2-33.7l4.9-2.2l25.1,73.9c14-6.5,28.6-6.9,42.7-7.4c19.4-0.7,36-1.2,48.9-16
			l3.4-3.9l26.4,25.6l48.1-27.7l10.4,5.2c6.2,3,12.4,6,18.3,9.4c26.3,15,52,21.5,79.9,19.6c31.9-1.9,63.9-1.4,101.9-0.1
			c26.7,1.1,43.6-4.3,57.8-17.5c6.3-5.9,14.3-10.2,22.8-14.8c3.9-2.1,7.9-4.2,11.8-6.6l4-2.5l25.9,38.8
			c42.6,4.2,139.3,3.3,179.8-0.5l5.4-0.5v28.1H1774l-18.9-23.8c-1.2,0.6-2.3,1.2-3.4,1.8c-4.1,2.1-7.6,4-10.2,6.3
			c-19.8,16.9-42.7,23-71.3,19.6c-29.3-3.5-58.8-3.5-83.7-3c-42.9,0.9-87.7,1.6-124.9-25.9l-57.6,31.5l-21.6-21.6l-35,19.9l-2.6-3.2
			c-11.5-13.4-24.4-9.9-39.4-5.7c-12.1,3.4-24.6,6.8-36.9,1.1l-1.9-0.8l-16.9-45.3c-2.9,3.5-5.5,6.9-8.2,10.2
			c-8.9,11-16.7,20.6-24.9,29.9c-5.7,6.5-11.4,9.3-17.2,9c-5.9-0.4-11.1-4-16.2-11.1c-4.2-6-8-12.3-12.3-19.4c-1.2-2-2.5-4-3.8-6.1
			l-39.9,42.9l-39.5-44.1c-1.6,0.6-3.2,1.2-4.7,1.8c-4.5,1.6-8.3,3.2-11.4,5c-42.8,28-90.9,28.9-128.1,26.5
			c-12.5-0.8-25.2-0.2-38.8,0.5c-5,0.2-10.1,0.5-15.2,0.6l-5,0.1v-62.2H884.6z"/>
	</g>
</g>
</svg>
