<?xml version="1.0" encoding="utf-8"?>
<!-- Generator: Adobe Illustrator 25.0.0, SVG Export Plug-In . SVG Version: 6.00 Build 0)  -->
<svg version="1.1" id="Layer_1" xmlns="http://www.w3.org/2000/svg" xmlns:xlink="http://www.w3.org/1999/xlink" x="0px" y="0px"
	 viewBox="0 0 2000 2000" style="enable-background:new 0 0 2000 2000;" xml:space="preserve">
<style type="text/css">
	.st0{fill:#FFFFFF;}
</style>
<g id="Urology">
	<g>
		<path class="st0" d="M648.3,420.6c3.1-7.1,6-14.6,8.4-22c13.6-40.6,18.1-84.7,9.6-125.7c-8-39-28.3-75.4-64.2-103
			C584,156,561.9,144.1,535,135c-19.4-6.6-38.7-10.4-57.7-12c-68.9-5.6-133.7,20.7-188,67.3c-57,48.9-102.4,119.7-129.5,200
			c-13.1,39.1-21.9,80.6-25.3,123c-7.6,93.3,7.9,193,40.1,282.9c28.1,78.2,68.7,148.7,117.9,200.6c45.9,48.4,98.4,80,154,84.6
			c24.9,2,50.4-1.1,76.3-10.4c65.6-23.6,105-63.4,123.2-106.6c7.6-18.1,11.4-36.9,12-54.9c0.4-18.1-2.4-35.9-8.1-52
			c-6.1-17.1-15.7-32.7-28.3-45.4c11.9-7.6,24.6-13.9,37.1-18.1c16.3-5.6,37.1-9.3,53-0.6c2.3,1.3,4.4,2.7,6.4,4.3
			c4.7,7.6,9.6,15.6,14.1,23.7c0.7,1.9,1.4,3.7,2.1,5.6c9.6,26.6,14.3,55.3,13.4,84.4c-0.7,29.3-6.9,58.9-18.6,87.3
			c-27,64.7-83.7,123.5-176,156.6c-38.9,14-77,18.7-113.7,15.7c-79.3-6.4-151.7-48.4-212.5-112.7c-57.4-60.7-104.6-142.3-136.9-232
			C53.6,724.3,36.1,611.5,44.8,505.9c4-49.4,14.3-98.2,29.9-144.6c32.1-95.6,87-180.5,156.3-239.8c72-61.7,159.5-96.4,253.6-88.7
			c25.9,2.1,52.4,7.6,79.3,16.6c36.7,12.4,67.9,29,93.7,48.9c54.4,41.9,85.2,97.2,97.3,156.3c11.9,57.2,6,117.6-12.4,172.3
			c-3.4,10.4-7.4,20.6-11.9,30.6c-24.1-11.3-48.7-21.9-73.3-33C654.2,423.3,651.3,422,648.3,420.6L648.3,420.6z M1278.4,457.7
			c-4.4-10-8.3-20.1-11.9-30.6c-18.4-54.7-24.3-115.2-12.4-172.3c12.3-59.2,42.9-114.4,97.3-156.3c25.9-19.9,56.9-36.6,93.7-48.9
			c26.9-9,53.4-14.4,79.3-16.6c94.2-7.7,181.6,27,253.6,88.7c69.3,59.4,124.2,144.3,156.3,239.8c15.6,46.3,25.9,95.2,29.9,144.6
			c8.6,105.6-8.9,218.5-45.4,320.3c-32.3,89.7-79.4,171.3-136.9,232c-60.7,64.3-133.2,106.3-212.5,112.7
			c-36.7,3-74.9-1.9-113.7-15.7c-92.2-33.1-149-92-176-156.6c-11.9-28.3-17.9-58-18.6-87.3c-0.7-29.1,3.9-57.9,13.4-84.4
			c0.7-1.9,1.4-3.7,2.1-5.6c4.6-8.1,9.4-16.1,14.1-23.7c2-1.6,4.1-3.1,6.4-4.3c15.9-8.9,36.7-5,53,0.6c12.6,4.3,25.3,10.6,37.1,18.1
			c-12.6,12.7-22.1,28.3-28.3,45.4c-5.9,16.1-8.7,33.9-8.1,52c0.4,18,4.3,36.6,11.9,54.9c18,43.2,57.6,83,123.2,106.6
			c26,9.3,51.4,12.6,76.3,10.4c55.4-4.6,108.2-36,154-84.6c49.2-52,89.7-122.5,117.9-200.6c32.3-90,47.9-189.7,40.1-282.9
			c-3.4-42.4-12.1-83.9-25.3-123c-27-80.3-72.4-151-129.6-200c-54.3-46.6-119.3-72.9-188-67.3c-19.1,1.6-38.4,5.4-57.7,12
			c-26.9,9-49.2,20.9-67.2,34.9c-35.9,27.6-56.2,64-64.2,103c-8.4,41-4,85.3,9.6,125.7c2.6,7.6,5.4,14.9,8.4,22
			c-3,1.4-5.9,2.7-8.7,4C1327,435.9,1302.6,446.4,1278.4,457.7L1278.4,457.7z M734.7,1598.2c5.9,34.6,23,61.4,50.3,83.3
			c41.7,33.4,100.9,51.2,152.7,60.4c25,4.4,48,15.7,66.6,32.3c18.7-16.7,41.7-27.9,66.6-32.3c51.9-9.3,111-27,152.7-60.4
			c27.3-21.9,44.4-48.7,50.3-83.3H734.7L734.7,1598.2z"/>
		<path class="st0" d="M263.1,427.3c-9.6-13.6-6.3-32.3,7.3-41.9c13.6-9.6,32.3-6.3,41.9,7.3c75.4,107,165.6,139.6,248,169.5
			c27.1,9.9,53.4,19.3,78.6,30.9c48.9,22.4,105.2,50.3,150.6,100.7c46.2,51,79.4,123.5,79.4,232.9c0,239.9,0,171.2,0,209.2
			c0,111,0.1,233.6,0.1,289.9c0,14.9-10.9,27.3-25.1,29.6l0,0c-73,12.1-119.2,33-144.9,59.9c-22.9,24-29.3,54.6-24.1,89
			c7.9,52.7,34.4,93.4,72.6,124c46.3,37.1,110.2,60.3,179.7,72.7c18,3.1,33.6,12.6,44.6,25.7c11,13.1,17.6,30,17.6,48.3h-0.1v52
			c0,16.6-13.4,30-30,30s-30-13.4-30-30v-52h-0.1c0-3.7-1.3-7.1-3.4-9.7c-2.1-2.6-5.3-4.4-8.9-5c-78.9-14-152-41-207-85.2
			c-49.7-39.9-84.2-92.9-94.4-162.2c-7.9-52.4,2.9-100,40.1-139.2c31-32.6,80.6-57.9,153.6-73c0-62.9,0-168.3-0.1-265
			c-0.1-223.8-0.1-32.3-0.1-209.2c0-75.6-18-129.2-45-168.7c-7.4-7.1-15.3-12.9-23.1-17.3c-31.3-17.3-67.4-15.4-101.6-3.9
			c-36.7,12.6-70.7,36-94.4,59.9c-11.1,11.3-19.9,22.1-25.1,31.7c-8,14.4-26.3,19.7-40.7,11.6c-14.4-8-19.7-26.3-11.6-40.7
			c8-14.3,20-29.9,35-44.9c29.6-29.6,71.7-58.7,117.7-74.4c13-4.4,26.4-7.9,40-9.9c-5.4-2.9-10.7-5.6-16-8.3
			C612,646,553.1,648.3,492,662.3c-64.4,14.7-129.3,42.4-167,75.9c-12.4,11-31.4,10-42.4-2.4c-11-12.4-9.9-31.4,2.4-42.4
			c45.3-40.3,120.2-72.7,193.5-89.6c4.7-1.1,9.4-2.1,14.1-3C415.1,570.7,334.7,528.7,263.1,427.3L263.1,427.3z M1079.4,1927.1
			c0,16.6-13.4,30-30,30c-16.6,0-30-13.4-30-30v-52h-0.1c0-18.3,6.4-35.1,17.6-48.3c11-13.1,26.6-22.6,44.6-25.7
			c69.7-12.4,133.5-35.6,179.7-72.7c38.1-30.6,64.7-71.3,72.6-124c5.1-34.4-1.1-65-24.1-89c-25.7-27-71.9-47.7-144.9-59.9
			c-15.3-2.4-25.9-16-25.1-31.1c0-57,0-178.3,0.1-288.5c0-38.1,0,30.7,0-209.2c0-109.4,33.3-181.7,79.4-232.9
			c45.4-50.4,101.7-78.2,150.6-100.7c25.1-11.6,51.4-21.1,78.6-30.9c82.4-29.9,172.6-62.4,248-169.5c9.6-13.6,28.3-16.9,41.9-7.3
			c13.6,9.6,16.9,28.3,7.3,41.9c-71.4,101.4-152,143.5-229.3,173.6c4.7,1,9.4,2,14.1,3c73.3,16.9,148.3,49.3,193.6,89.6
			c12.4,11,13.6,30,2.4,42.4c-11,12.4-30,13.6-42.4,2.4c-37.7-33.6-102.4-61.2-167-75.9c-61.2-14-120-16.3-151.9-0.7
			c-5.3,2.7-10.7,5.4-16,8.3c13.6,2.1,26.9,5.4,40,9.9c46,15.7,88.3,44.9,117.7,74.4c15,15,27,30.6,35,44.9
			c8,14.4,2.9,32.7-11.6,40.7c-14.4,8-32.7,2.9-40.7-11.6c-5.3-9.6-13.9-20.4-25.1-31.7c-23.9-23.9-57.7-47.3-94.6-59.9
			c-34.1-11.6-70.3-13.6-101.6,3.9c-7.9,4.4-15.7,10.1-23.1,17.3c-27,39.6-45,93.2-45,168.7c0,176.9-0.1-14.6-0.1,209.2
			c0,96.7-0.1,202.2-0.1,265c73,15.3,122.5,40.4,153.6,73c37.3,39.1,48,86.7,40.1,139.2c-10.3,69.2-44.7,122.3-94.4,162.2
			c-55,44-128.2,71.2-207,85.2c-3.6,0.7-6.7,2.4-8.9,5c-2.1,2.6-3.4,6-3.4,9.7h-0.1v52L1079.4,1927.1L1079.4,1927.1z M415.4,366
			c-6.3-15.4,1.1-32.9,16.6-39.1c15.4-6.3,32.9,1.1,39.1,16.6c31.9,78.4,108.2,112.4,188.7,148.3c17.9,8,35.9,16,53.7,24.6
			c18.6-1.6,34.4-7.4,47-15.7c14.6-9.6,23.9-21.4,26.4-32.3c3.9-16.1,20-26,36.1-22.1c16.1,3.9,26,20,22.1,36.1
			c-6,25.1-24.4,50.7-51.9,68.7c-2.4,1.6-5,3.3-7.7,4.7c96,61.3,173.3,158.5,173.3,370.9h-0.1v95.3c0,109.9-0.1,274,0,363.6h90.6
			c0.1-90,0-255.6,0-365.4v-93.4h-0.1c0-212.6,77.3-309.8,173.3-370.9c-2.7-1.6-5.3-3.1-7.7-4.7c-27.4-18-45.9-43.6-51.9-68.7
			c-3.9-16.1,6.1-32.3,22.1-36.1c16.1-3.9,32.3,6.1,36.1,22.1c2.6,10.9,12,22.7,26.4,32.3c12.6,8.3,28.6,14.1,47,15.7
			c17.9-8.6,35.9-16.6,53.7-24.6c80.6-35.9,156.9-70,188.7-148.3c6.3-15.4,23.7-22.9,39.1-16.6s22.9,23.7,16.6,39.1
			c-40.9,100.7-128,139.6-220,180.6c-126.6,56.4-263.5,117.4-263.5,380.1h-0.1v93.4c0,122.3,0.1,313.8,0,392.9
			c0.1,0.9,0.1,1.7,0.1,2.6c0,16.6-13.4,30.1-30.1,30.1H929.1v-0.1c-16.6,0-30-13.4-30-30c-0.1-77.2-0.1-269.9,0-393.6v-95.3h-0.1
			c0-262.6-136.9-323.6-263.5-380.1C543.4,505.6,456.3,466.7,415.4,366L415.4,366z"/>
	</g>
</g>
</svg>
